<svg xmlns="http://www.w3.org/2000/svg" width="1811" height="80" viewBox="0 0 1811 80">
  <g id="Group_3977" data-name="Group 3977" transform="translate(-43 4)">
    <ellipse id="Ellipse_738" data-name="Ellipse 738" cx="26" cy="25.5" rx="26" ry="25.5" transform="translate(43 25)" fill="#fff" opacity="0.102"/>
    <ellipse id="Ellipse_739" data-name="Ellipse 739" cx="26" cy="25.5" rx="26" ry="25.5" transform="translate(392 -4)" fill="#fff" opacity="0.102"/>
    <circle id="Ellipse_744" data-name="Ellipse 744" cx="7.5" cy="7.5" r="7.5" transform="translate(533 14)" fill="#fff" opacity="0.102"/>
    <circle id="Ellipse_745" data-name="Ellipse 745" cx="7.5" cy="7.5" r="7.5" transform="translate(603 25)" fill="#fff" opacity="0.102"/>
    <circle id="Ellipse_747" data-name="Ellipse 747" cx="7.5" cy="7.5" r="7.5" transform="translate(960 10)" fill="#fff" opacity="0.102"/>
    <circle id="Ellipse_748" data-name="Ellipse 748" cx="7.5" cy="7.5" r="7.5" transform="translate(882 40)" fill="#fff" opacity="0.102"/>
    <circle id="Ellipse_746" data-name="Ellipse 746" cx="7.5" cy="7.5" r="7.5" transform="translate(249 14)" fill="#fff" opacity="0.102"/>
    <circle id="Ellipse_749" data-name="Ellipse 749" cx="7.5" cy="7.5" r="7.5" transform="translate(1695 14)" fill="#fff" opacity="0.102"/>
    <circle id="Ellipse_750" data-name="Ellipse 750" cx="7.5" cy="7.5" r="7.5" transform="translate(1307 22)" fill="#fff" opacity="0.102"/>
    <circle id="Ellipse_751" data-name="Ellipse 751" cx="7.5" cy="7.5" r="7.5" transform="translate(1583 33)" fill="#fff" opacity="0.102"/>
    <ellipse id="Ellipse_740" data-name="Ellipse 740" cx="26" cy="25.5" rx="26" ry="25.5" transform="translate(746 21)" fill="#fff" opacity="0.102"/>
    <ellipse id="Ellipse_741" data-name="Ellipse 741" cx="26" cy="25.5" rx="26" ry="25.5" transform="translate(1084 25)" fill="#fff" opacity="0.102"/>
    <ellipse id="Ellipse_742" data-name="Ellipse 742" cx="26" cy="25.5" rx="26" ry="25.5" transform="translate(1476 21)" fill="#fff" opacity="0.102"/>
    <ellipse id="Ellipse_743" data-name="Ellipse 743" cx="26" cy="25.5" rx="26" ry="25.5" transform="translate(1802)" fill="#fff" opacity="0.102"/>
  </g>
</svg>
