<svg xmlns="http://www.w3.org/2000/svg" width="60" height="60" viewBox="0 0 60 60">
  <g id="favicon" transform="translate(-750 -810)">
    <rect width="60" height="60" rx="18" transform="translate(750 810)" fill="#fff"/>
    <path d="M19.28-1251.088l-.019-.02,9.407-9.407a4.832,4.832,0,0,0,1.425-3.44,4.832,4.832,0,0,0-1.425-3.439L18.063-1278h5.03a2.6,2.6,0,0,1,1.834.76l8.47,8.548c2.785,3.038,1.977,7.785-.137,9.66l-7.913,7.944a4.859,4.859,0,0,1-3.033.76A4.857,4.857,0,0,1,19.28-1251.088Zm-7.717-.486-11.211-11.2a1.2,1.2,0,0,1-.352-.847v-13.054a1.2,1.2,0,0,1,1.2-1.2H14.252a1.2,1.2,0,0,1,.847.351l11.212,11.213,0,0a3.784,3.784,0,0,1,1.107,2.685,3.785,3.785,0,0,1-1.107,2.685l0,0-9.359,9.359a3.785,3.785,0,0,1-2.695,1.116A3.786,3.786,0,0,1,11.563-1251.574Z" transform="translate(763.128 2104.73)"/>
  </g>
</svg>
