<svg xmlns="http://www.w3.org/2000/svg" width="16" height="12.592" viewBox="0 0 16 12.592">
  <path id="Path_1881" data-name="Path 1881" d="M8.768-1265.761l-.009-.009,4.278-4.278a2.2,2.2,0,0,0,.648-1.564,2.2,2.2,0,0,0-.648-1.564L8.215-1278H10.5a1.179,1.179,0,0,1,.834.345l3.852,3.888a3.283,3.283,0,0,1-.062,4.393l-3.6,3.613a2.209,2.209,0,0,1-1.379.346,2.209,2.209,0,0,1-1.377-.346Zm-3.51-.221-5.1-5.093a.543.543,0,0,1-.16-.385v-5.937a.545.545,0,0,1,.545-.545H6.482a.545.545,0,0,1,.385.16l5.1,5.1h0a1.721,1.721,0,0,1,.5,1.221,1.721,1.721,0,0,1-.5,1.221h0l-4.256,4.256a1.721,1.721,0,0,1-1.226.508,1.721,1.721,0,0,1-1.226-.506Z" transform="translate(0.002 1278)"/>
</svg>
